<svg width="37" height="36" viewBox="0 0 37 36" fill="none" xmlns="http://www.w3.org/2000/svg">
<rect x="1" y="0.5" width="35" height="35" rx="9.5" stroke="#0C0C0C" stroke-opacity="0.1"/>
<g opacity="0.8">
<g clip-path="url(#clip0_15357_46)">
<g filter="url(#filter0_d_15357_46)">
<path d="M20.7 10.9001C20.85 10.9001 21 10.9001 21.3 10.9001V13.1501C21.15 13.1501 20.85 13.1501 20.55 13.1501C20.25 13.1501 19.95 13.1501 19.8 13.3001C19.65 13.4501 19.65 13.6001 19.65 13.9501C19.65 14.2501 19.65 14.4501 19.65 14.7501H21.3V16.6501H19.65V24.9001H17.1V16.6001H15.75V14.7001H17.1V14.0501C17.1 12.9501 17.25 12.1501 17.55 11.8001C18 11.1501 18.9 10.8501 20.25 10.8501C20.4 10.9001 20.55 10.9001 20.7 10.9001Z" fill="#0C0C0C"/>
</g>
</g>
</g>
<defs>
<filter id="filter0_d_15357_46" x="11.75" y="10.8501" width="13.5498" height="22.05" filterUnits="userSpaceOnUse" color-interpolation-filters="sRGB">
<feFlood flood-opacity="0" result="BackgroundImageFix"/>
<feColorMatrix in="SourceAlpha" type="matrix" values="0 0 0 0 0 0 0 0 0 0 0 0 0 0 0 0 0 0 127 0" result="hardAlpha"/>
<feOffset dy="4"/>
<feGaussianBlur stdDeviation="2"/>
<feComposite in2="hardAlpha" operator="out"/>
<feColorMatrix type="matrix" values="0 0 0 0 0 0 0 0 0 0 0 0 0 0 0 0 0 0 0.25 0"/>
<feBlend mode="normal" in2="BackgroundImageFix" result="effect1_dropShadow_15357_46"/>
<feBlend mode="normal" in="SourceGraphic" in2="effect1_dropShadow_15357_46" result="shape"/>
</filter>
<clipPath id="clip0_15357_46">
<rect width="20" height="20" fill="white" transform="translate(8.5 8)"/>
</clipPath>
</defs>
</svg>
